<svg width="128" height="128" viewBox="0 0 128 128" fill="none" xmlns="http://www.w3.org/2000/svg">
<g clip-path="url(#clip0_2128_2)">
<rect width="128" height="128" fill="white"/>
<rect y="50" width="77" height="78" fill="black"/>
<path d="M10.5547 42.9688C9.82031 43.5365 9.35938 43.8646 9.17188 43.9531C8.89062 44.0833 8.59115 44.1484 8.27344 44.1484C7.77865 44.1484 7.36979 43.9792 7.04688 43.6406C6.72917 43.3021 6.57031 42.8568 6.57031 42.3047C6.57031 41.9557 6.64844 41.6536 6.80469 41.3984C7.01823 41.0443 7.38802 40.7109 7.91406 40.3984C8.44531 40.0859 9.32552 39.7057 10.5547 39.2578V38.9766C10.5547 38.263 10.4401 37.7734 10.2109 37.5078C9.98698 37.2422 9.65885 37.1094 9.22656 37.1094C8.89844 37.1094 8.63802 37.1979 8.44531 37.375C8.2474 37.5521 8.14844 37.7552 8.14844 37.9844L8.16406 38.4375C8.16406 38.6771 8.10156 38.862 7.97656 38.9922C7.85677 39.1224 7.69792 39.1875 7.5 39.1875C7.30729 39.1875 7.14844 39.1198 7.02344 38.9844C6.90365 38.849 6.84375 38.6641 6.84375 38.4297C6.84375 37.9818 7.07292 37.5703 7.53125 37.1953C7.98958 36.8203 8.63281 36.6328 9.46094 36.6328C10.0964 36.6328 10.6172 36.7396 11.0234 36.9531C11.3307 37.1146 11.5573 37.3672 11.7031 37.7109C11.7969 37.9349 11.8438 38.3932 11.8438 39.0859V41.5156C11.8438 42.1979 11.8568 42.6172 11.8828 42.7734C11.9089 42.9245 11.9505 43.026 12.0078 43.0781C12.0703 43.1302 12.1406 43.1562 12.2188 43.1562C12.3021 43.1562 12.375 43.138 12.4375 43.1016C12.5469 43.0339 12.7578 42.8438 13.0703 42.5312V42.9688C12.487 43.75 11.9297 44.1406 11.3984 44.1406C11.1432 44.1406 10.9401 44.0521 10.7891 43.875C10.638 43.6979 10.5599 43.3958 10.5547 42.9688ZM10.5547 42.4609V39.7344C9.76823 40.0469 9.26042 40.2682 9.03125 40.3984C8.61979 40.6276 8.32552 40.8672 8.14844 41.1172C7.97135 41.3672 7.88281 41.6406 7.88281 41.9375C7.88281 42.3125 7.99479 42.625 8.21875 42.875C8.44271 43.1198 8.70052 43.2422 8.99219 43.2422C9.38802 43.2422 9.90885 42.9818 10.5547 42.4609ZM13.0938 37.5547L15.2969 36.6641H15.5938V38.3359C15.9635 37.7057 16.3333 37.2656 16.7031 37.0156C17.0781 36.7604 17.4714 36.6328 17.8828 36.6328C18.6016 36.6328 19.2005 36.9141 19.6797 37.4766C20.2682 38.1641 20.5625 39.0599 20.5625 40.1641C20.5625 41.3984 20.2083 42.4193 19.5 43.2266C18.9167 43.888 18.1823 44.2188 17.2969 44.2188C16.9115 44.2188 16.5781 44.1641 16.2969 44.0547C16.0885 43.9766 15.8542 43.8203 15.5938 43.5859V45.7656C15.5938 46.2552 15.6224 46.5651 15.6797 46.6953C15.7422 46.8307 15.8464 46.9375 15.9922 47.0156C16.1432 47.0938 16.4141 47.1328 16.8047 47.1328V47.4219H13.0547V47.1328H13.25C13.5365 47.138 13.7812 47.0833 13.9844 46.9688C14.0833 46.9115 14.1589 46.8177 14.2109 46.6875C14.2682 46.5625 14.2969 46.2396 14.2969 45.7188V38.9531C14.2969 38.4896 14.276 38.1953 14.2344 38.0703C14.1927 37.9453 14.125 37.8516 14.0312 37.7891C13.9427 37.7266 13.8203 37.6953 13.6641 37.6953C13.5391 37.6953 13.3802 37.7318 13.1875 37.8047L13.0938 37.5547ZM15.5938 38.7969V41.4688C15.5938 42.0469 15.6172 42.4271 15.6641 42.6094C15.737 42.9115 15.9141 43.1771 16.1953 43.4062C16.4818 43.6354 16.8411 43.75 17.2734 43.75C17.7943 43.75 18.2161 43.5469 18.5391 43.1406C18.9609 42.6094 19.1719 41.862 19.1719 40.8984C19.1719 39.8047 18.9323 38.9635 18.4531 38.375C18.1198 37.9688 17.724 37.7656 17.2656 37.7656C17.0156 37.7656 16.7682 37.8281 16.5234 37.9531C16.3359 38.0469 16.026 38.3281 15.5938 38.7969ZM25.1094 36.6328C26.1927 36.6328 27.0625 37.0443 27.7188 37.8672C28.276 38.5703 28.5547 39.3776 28.5547 40.2891C28.5547 40.9297 28.401 41.5781 28.0938 42.2344C27.7865 42.8906 27.362 43.3854 26.8203 43.7188C26.2839 44.0521 25.6849 44.2188 25.0234 44.2188C23.9453 44.2188 23.0885 43.7891 22.4531 42.9297C21.9167 42.2057 21.6484 41.3932 21.6484 40.4922C21.6484 39.8359 21.8099 39.1849 22.1328 38.5391C22.4609 37.888 22.8906 37.4089 23.4219 37.1016C23.9531 36.7891 24.5156 36.6328 25.1094 36.6328ZM24.8672 37.1406C24.5911 37.1406 24.3125 37.224 24.0312 37.3906C23.7552 37.5521 23.5312 37.8385 23.3594 38.25C23.1875 38.6615 23.1016 39.1901 23.1016 39.8359C23.1016 40.8776 23.3073 41.776 23.7188 42.5312C24.1354 43.2865 24.6823 43.6641 25.3594 43.6641C25.8646 43.6641 26.2812 43.4557 26.6094 43.0391C26.9375 42.6224 27.1016 41.9062 27.1016 40.8906C27.1016 39.6198 26.8281 38.6198 26.2812 37.8906C25.9115 37.3906 25.4401 37.1406 24.8672 37.1406ZM32.0703 32.8906V42.3828C32.0703 42.8307 32.1016 43.1276 32.1641 43.2734C32.2318 43.4193 32.3333 43.5312 32.4688 43.6094C32.6042 43.6823 32.8568 43.7188 33.2266 43.7188V44H29.7188V43.7188C30.0469 43.7188 30.2708 43.6849 30.3906 43.6172C30.5104 43.5495 30.6042 43.4375 30.6719 43.2812C30.7396 43.125 30.7734 42.8255 30.7734 42.3828V35.8828C30.7734 35.0755 30.7552 34.5807 30.7188 34.3984C30.6823 34.2109 30.6224 34.0833 30.5391 34.0156C30.4609 33.9479 30.3594 33.9141 30.2344 33.9141C30.099 33.9141 29.9271 33.9557 29.7188 34.0391L29.5859 33.7656L31.7188 32.8906H32.0703ZM36.5234 32.8906V42.3828C36.5234 42.8307 36.5547 43.1276 36.6172 43.2734C36.6849 43.4193 36.7865 43.5312 36.9219 43.6094C37.0573 43.6823 37.3099 43.7188 37.6797 43.7188V44H34.1719V43.7188C34.5 43.7188 34.724 43.6849 34.8438 43.6172C34.9635 43.5495 35.0573 43.4375 35.125 43.2812C35.1927 43.125 35.2266 42.8255 35.2266 42.3828V35.8828C35.2266 35.0755 35.2083 34.5807 35.1719 34.3984C35.1354 34.2109 35.0755 34.0833 34.9922 34.0156C34.9141 33.9479 34.8125 33.9141 34.6875 33.9141C34.5521 33.9141 34.3802 33.9557 34.1719 34.0391L34.0391 33.7656L36.1719 32.8906H36.5234ZM38.1094 36.8438H41.4453V37.1328H41.2812C41.0469 37.1328 40.8698 37.1849 40.75 37.2891C40.6354 37.388 40.5781 37.513 40.5781 37.6641C40.5781 37.8672 40.6641 38.1484 40.8359 38.5078L42.5781 42.1172L44.1797 38.1641C44.2682 37.9505 44.3125 37.7396 44.3125 37.5312C44.3125 37.4375 44.2943 37.3672 44.2578 37.3203C44.2161 37.263 44.151 37.2188 44.0625 37.1875C43.974 37.151 43.8177 37.1328 43.5938 37.1328V36.8438H45.9219V37.1328C45.7292 37.1536 45.5807 37.1953 45.4766 37.2578C45.3724 37.3203 45.2578 37.4375 45.1328 37.6094C45.0859 37.6823 44.9974 37.8828 44.8672 38.2109L41.9531 45.3516C41.6719 46.0443 41.3021 46.5677 40.8438 46.9219C40.3906 47.276 39.9531 47.4531 39.5312 47.4531C39.224 47.4531 38.9714 47.3646 38.7734 47.1875C38.5755 47.0104 38.4766 46.8073 38.4766 46.5781C38.4766 46.3594 38.5469 46.1823 38.6875 46.0469C38.8333 45.9167 39.0312 45.8516 39.2812 45.8516C39.4531 45.8516 39.6875 45.9089 39.9844 46.0234C40.1927 46.1016 40.3229 46.1406 40.375 46.1406C40.5312 46.1406 40.7005 46.0599 40.8828 45.8984C41.0703 45.737 41.2578 45.4245 41.4453 44.9609L41.9531 43.7188L39.3828 38.3203C39.3047 38.1589 39.1797 37.9583 39.0078 37.7188C38.8776 37.5365 38.7708 37.4141 38.6875 37.3516C38.5677 37.2682 38.375 37.1953 38.1094 37.1328V36.8438ZM48.6016 38.1484C49.4401 37.138 50.2396 36.6328 51 36.6328C51.3906 36.6328 51.7266 36.7318 52.0078 36.9297C52.2891 37.1224 52.513 37.4427 52.6797 37.8906C52.7943 38.2031 52.8516 38.6823 52.8516 39.3281V42.3828C52.8516 42.8359 52.888 43.1432 52.9609 43.3047C53.0182 43.4349 53.1094 43.5365 53.2344 43.6094C53.3646 43.6823 53.6016 43.7188 53.9453 43.7188V44H50.4062V43.7188H50.5547C50.888 43.7188 51.1198 43.6693 51.25 43.5703C51.3854 43.4661 51.4792 43.3151 51.5312 43.1172C51.5521 43.0391 51.5625 42.7943 51.5625 42.3828V39.4531C51.5625 38.8021 51.4766 38.3307 51.3047 38.0391C51.138 37.7422 50.8542 37.5938 50.4531 37.5938C49.8333 37.5938 49.2161 37.9323 48.6016 38.6094V42.3828C48.6016 42.8672 48.6302 43.1667 48.6875 43.2812C48.7604 43.4323 48.8594 43.5443 48.9844 43.6172C49.1146 43.6849 49.375 43.7188 49.7656 43.7188V44H46.2266V43.7188H46.3828C46.7474 43.7188 46.9922 43.6276 47.1172 43.4453C47.2474 43.2578 47.3125 42.9036 47.3125 42.3828V39.7266C47.3125 38.8672 47.2917 38.3438 47.25 38.1562C47.2135 37.9688 47.1536 37.8411 47.0703 37.7734C46.9922 37.7057 46.8854 37.6719 46.75 37.6719C46.6042 37.6719 46.4297 37.7109 46.2266 37.7891L46.1094 37.5078L48.2656 36.6328H48.6016V38.1484ZM58.5703 42.9688C57.8359 43.5365 57.375 43.8646 57.1875 43.9531C56.9062 44.0833 56.6068 44.1484 56.2891 44.1484C55.7943 44.1484 55.3854 43.9792 55.0625 43.6406C54.7448 43.3021 54.5859 42.8568 54.5859 42.3047C54.5859 41.9557 54.6641 41.6536 54.8203 41.3984C55.0339 41.0443 55.4036 40.7109 55.9297 40.3984C56.4609 40.0859 57.3411 39.7057 58.5703 39.2578V38.9766C58.5703 38.263 58.4557 37.7734 58.2266 37.5078C58.0026 37.2422 57.6745 37.1094 57.2422 37.1094C56.9141 37.1094 56.6536 37.1979 56.4609 37.375C56.263 37.5521 56.1641 37.7552 56.1641 37.9844L56.1797 38.4375C56.1797 38.6771 56.1172 38.862 55.9922 38.9922C55.8724 39.1224 55.7135 39.1875 55.5156 39.1875C55.3229 39.1875 55.1641 39.1198 55.0391 38.9844C54.9193 38.849 54.8594 38.6641 54.8594 38.4297C54.8594 37.9818 55.0885 37.5703 55.5469 37.1953C56.0052 36.8203 56.6484 36.6328 57.4766 36.6328C58.112 36.6328 58.6328 36.7396 59.0391 36.9531C59.3464 37.1146 59.5729 37.3672 59.7188 37.7109C59.8125 37.9349 59.8594 38.3932 59.8594 39.0859V41.5156C59.8594 42.1979 59.8724 42.6172 59.8984 42.7734C59.9245 42.9245 59.9661 43.026 60.0234 43.0781C60.0859 43.1302 60.1562 43.1562 60.2344 43.1562C60.3177 43.1562 60.3906 43.138 60.4531 43.1016C60.5625 43.0339 60.7734 42.8438 61.0859 42.5312V42.9688C60.5026 43.75 59.9453 44.1406 59.4141 44.1406C59.1589 44.1406 58.9557 44.0521 58.8047 43.875C58.6536 43.6979 58.5755 43.3958 58.5703 42.9688ZM58.5703 42.4609V39.7344C57.7839 40.0469 57.276 40.2682 57.0469 40.3984C56.6354 40.6276 56.3411 40.8672 56.1641 41.1172C55.987 41.3672 55.8984 41.6406 55.8984 41.9375C55.8984 42.3125 56.0104 42.625 56.2344 42.875C56.4583 43.1198 56.7161 43.2422 57.0078 43.2422C57.4036 43.2422 57.9245 42.9818 58.5703 42.4609ZM63.7188 36.6328V38.2422C64.3177 37.1693 64.9323 36.6328 65.5625 36.6328C65.849 36.6328 66.0859 36.7214 66.2734 36.8984C66.4609 37.0703 66.5547 37.2708 66.5547 37.5C66.5547 37.7031 66.487 37.875 66.3516 38.0156C66.2161 38.1562 66.0547 38.2266 65.8672 38.2266C65.6849 38.2266 65.4792 38.138 65.25 37.9609C65.026 37.7786 64.8594 37.6875 64.75 37.6875C64.6562 37.6875 64.5547 37.7396 64.4453 37.8438C64.2109 38.0573 63.9688 38.4089 63.7188 38.8984V42.3281C63.7188 42.724 63.7682 43.0234 63.8672 43.2266C63.9349 43.3672 64.0547 43.4844 64.2266 43.5781C64.3984 43.6719 64.6458 43.7188 64.9688 43.7188V44H61.3047V43.7188C61.6693 43.7188 61.9401 43.6615 62.1172 43.5469C62.2474 43.4635 62.3385 43.3307 62.3906 43.1484C62.4167 43.0599 62.4297 42.8073 62.4297 42.3906V39.6172C62.4297 38.7839 62.4115 38.2891 62.375 38.1328C62.3438 37.9714 62.2812 37.8542 62.1875 37.7812C62.099 37.7083 61.987 37.6719 61.8516 37.6719C61.6901 37.6719 61.5078 37.7109 61.3047 37.7891L61.2266 37.5078L63.3906 36.6328H63.7188ZM66.5469 36.8438H69.8828V37.1328H69.7188C69.4844 37.1328 69.3073 37.1849 69.1875 37.2891C69.0729 37.388 69.0156 37.513 69.0156 37.6641C69.0156 37.8672 69.1016 38.1484 69.2734 38.5078L71.0156 42.1172L72.6172 38.1641C72.7057 37.9505 72.75 37.7396 72.75 37.5312C72.75 37.4375 72.7318 37.3672 72.6953 37.3203C72.6536 37.263 72.5885 37.2188 72.5 37.1875C72.4115 37.151 72.2552 37.1328 72.0312 37.1328V36.8438H74.3594V37.1328C74.1667 37.1536 74.0182 37.1953 73.9141 37.2578C73.8099 37.3203 73.6953 37.4375 73.5703 37.6094C73.5234 37.6823 73.4349 37.8828 73.3047 38.2109L70.3906 45.3516C70.1094 46.0443 69.7396 46.5677 69.2812 46.9219C68.8281 47.276 68.3906 47.4531 67.9688 47.4531C67.6615 47.4531 67.4089 47.3646 67.2109 47.1875C67.013 47.0104 66.9141 46.8073 66.9141 46.5781C66.9141 46.3594 66.9844 46.1823 67.125 46.0469C67.2708 45.9167 67.4688 45.8516 67.7188 45.8516C67.8906 45.8516 68.125 45.9089 68.4219 46.0234C68.6302 46.1016 68.7604 46.1406 68.8125 46.1406C68.9688 46.1406 69.138 46.0599 69.3203 45.8984C69.5078 45.737 69.6953 45.4245 69.8828 44.9609L70.3906 43.7188L67.8203 38.3203C67.7422 38.1589 67.6172 37.9583 67.4453 37.7188C67.3151 37.5365 67.2083 37.4141 67.125 37.3516C67.0052 37.2682 66.8125 37.1953 66.5469 37.1328V36.8438Z" fill="black"/>
</g>
<defs>
<clipPath id="clip0_2128_2">
<rect width="128" height="128" fill="white"/>
</clipPath>
</defs>
</svg>
